<svg id="Layer_1" xmlns="http://www.w3.org/2000/svg" viewBox="0 0 352.8 84.1"><style>.st0{fill:#7f3eff}</style><path class="st0" d="M1.7 18v38.8c0 4.5 3.9 7.8 3.9 7.8s16.2 10 24.8 15.4c8.7 5.3 13.1 2 13.1 2s29-9.8 35.3-12.1c6.3-2.3 6.3-8.3 6.3-8.3V22.2c-.3-4.5-5.5-6.7-5.5-6.7s-16.2-8.4-23-12C49.9-.2 44.1 1.6 44.1 1.6S12.6 10.7 6.7 12.4c-5.8 1.7-5 5.6-5 5.6zm30.7 13.9s-16-8.8-22.4-13c-4.7-3.1.5-4.6.5-4.6s26-7.4 32.7-9.3c6.7-2 10 .2 10 .2L78 17.3c5.7 3 .3 4.3.3 4.3s-2.8.9-6.7 2.1l.1 27-8.2-7.5-12 16.1.3-29.3c-2.9.9-5.3 1.8-6.8 2.3-7 2.5-12.6-.4-12.6-.4zM8.5 21.6l23.6 14.2s4.3 1.8 4.3 6.9c0 5.1.2 31.8.2 31.8s.2 5.7-4.8 3-23.1-14-23.1-14-4.1-1.9-4.1-6.4V24.6s-.6-5.7 3.9-3z"/><path d="M231.6 37.2c-2.1-2-4.5-2.6-7.3-2.6-3.5 0-5.4 1.1-5.4 2.9 0 1.9 1.7 3 5.5 3.2 5.6.4 12.7 1.6 12.7 9.5 0 5.2-4.3 9.7-12.7 9.7-4.7 0-9.4-.8-13.7-5.3l3.6-5.2c2.1 2.3 6.9 4.1 10.2 4.1 2.8.1 5.3-1.4 5.3-3.5 0-2-1.7-2.9-5.9-3.1-5.6-.4-12.2-2.5-12.2-9.2 0-6.8 7.1-9.2 12.5-9.2 4.6 0 8.1.9 11.5 3.9l-4.1 4.8zm-111-7.9l6.5 22.3 6.8-22.3h8.1l-10.3 29.8h-8.5l-3.1-8.8-2.6-9.9-2.6 9.9-3.1 8.8h-8.5L92.8 29.3h8.2l6.8 22.3 6.4-22.3h6.4zm46.4.1h7V59h-6.9l-.4-4.3c-1.7 3.5-6.3 5.2-9.6 5.2-8.8.1-15.2-5.3-15.2-15.7 0-10.2 6.8-15.5 15.4-15.5 4 0 7.7 1.9 9.4 4.8l.3-4.1zm-17.8 14.7c0 5.6 3.9 9 8.8 9 11.5 0 11.5-17.9 0-17.9-4.9 0-8.8 3.3-8.8 8.9zM199.7 59V43.5c0-4.5-2.5-7.9-7.1-7.9-4.5 0-7.6 3.8-7.6 8.3V59h-7.3V29.3h6.5l.5 4c3-2.9 6-4.4 9.7-4.4 7 0 12.5 5.2 12.5 14.5V59h-7.2zm65.7-29.6h7V59h-6.9l-.4-4.3c-1.7 3.5-6.3 5.2-9.6 5.2-8.8.1-15.2-5.3-15.2-15.7 0-10.2 6.8-15.5 15.4-15.5 4 0 7.7 1.9 9.4 4.8l.3-4.1zm-17.7 14.7c0 5.6 3.9 9 8.8 9 11.5 0 11.5-17.9 0-17.9-4.9 0-8.8 3.3-8.8 8.9zm36-27.1v42h-7.3V17h7.3zm11.6 29.8c.5 3.7 3.7 6.3 8.8 6.3 2.7 0 6.2-1 7.9-2.8l4.7 4.6c-3.1 3.2-8.2 4.8-12.7 4.8-10.2 0-16.3-6.3-16.3-15.8 0-9 6.1-15.5 15.7-15.5 9.9 0 16.1 6.1 14.9 18.3h-23zm16.1-6.1c-.5-3.8-3.5-5.8-7.7-5.8-4 0-7.2 1.9-8.3 5.8h16zM329.7 17v16.4c2.6-3.4 5.9-4.4 9.2-4.4 8.4 0 12.1 5.7 12.1 14.4V59h-7.3V43.4c0-5.4-2.8-7.7-6.7-7.7-4.3 0-7.3 3.7-7.3 8.1V59h-7.3V17h7.3z"/></svg>